<svg xmlns="http://www.w3.org/2000/svg" width="32" height="32" fill="#04ac95"><path d="M16 4C9.383 4 4 9.383 4 16s5.383 12 12 12 12-5.383 12-12S22.617 4 16 4zm0 2c2.535 0 4.832.953 6.594 2.5a6.99 6.99 0 0 1-.844.969c-.855.828-2.223 1.824-4.312 2.594-1.414-2.613-2.8-4.578-3.72-5.812C14.45 6.082 15.215 6 16 6zm-4.25.938a46.68 46.68 0 0 1 3.75 5.719 38.35 38.35 0 0 1-9.281 1.219c.664-3.1 2.742-5.633 5.53-6.937zm12.22 3.03A9.99 9.99 0 0 1 26 15.75c-.89-.2-2.203-.395-3.906-.406-.887-.004-1.89.06-2.97.188-.25-.57-.52-1.12-.78-1.656 2.242-.86 3.77-1.992 4.78-2.97.344-.336.613-.645.844-.937zm-7.562 4.5l.688 1.438C12.82 17.1 9.75 20.715 8.438 22.53 6.926 20.78 6 18.5 6 16v-.125c1.352.016 5.648-.078 10.406-1.406zm5.688 2.844c1.785 0 3.02.25 3.75.438a9.93 9.93 0 0 1-4.094 6.438c-.398-2.39-1.055-4.664-1.844-6.75.79-.078 1.535-.125 2.188-.125zm-4.22.47c.898 2.28 1.652 4.785 2.03 7.438A10.06 10.06 0 0 1 16 26c-2.293 0-4.4-.77-6.094-2.062 1.027-1.406 4.047-5.148 7.97-6.156z"/></svg>