<svg xmlns="http://www.w3.org/2000/svg" height="512" width="512" fill="#04ac95"><path d="M444.116 80.052V12.368H410.18v67.684h-67.887v33.874h67.887v67.685h33.936v-67.685h67.87V80.052zM257.75 290.482c-47.515-34.563-59.14-54.092-13.78-89.1 25.56-19.718 43.48-45.967 43.48-78.403 0-35.342-14.483-67.404-41.747-82.966h38.64l32.873-34.405H170.083c-91.84 0-136.885 54.904-136.885 115.277 0 61.717 42.468 110.3 125.37 110.3-12.858 25.875-7.703 49.78 13.327 66.873C30.307 298.076.012 360.043.012 407.76c0 61.873 71.278 98.623 156.758 98.623 116.87 0 163.336-61.78 163.336-112.496 0-41.375-15.5-68.407-62.355-103.405zM88.54 119.988c-6.86-51.937 19.732-91.686 59.388-90.528 39.64 1.188 73.56 43.8 80.4 95.715 6.845 51.967-15.968 85.372-55.605 84.185-39.656-1.155-77.357-37.436-84.184-89.372zm68.652 358.893c-59.075 0-101.745-37.28-101.745-82.1 0-43.904 50.06-81.78 109.136-81.123 65.543 0 104.635 40.688 104.635 83.404 0 44.8-36.498 79.8-112.026 79.8z"/></svg>