<svg xmlns="http://www.w3.org/2000/svg" width="161" height="161" viewBox="-2.45 -2.534 161 161" fill="#04ac95"><path d="M64.347 0C21.57 0 0 30.67 0 56.246 0 71.732 5.863 85.51 18.438 90.643c2.062.843 3.91.03 4.507-2.254l1.84-7.226c.603-2.258.37-3.05-1.295-5.018-3.626-4.277-5.943-9.814-5.943-17.657 0-22.754 17.024-43.124 44.33-43.124 24.18 0 37.463 14.774 37.463 34.505 0 25.96-11.49 47.872-28.545 47.872-9.42 0-16.47-7.8-14.2-17.344 2.706-11.406 7.948-23.716 7.948-31.95 0-7.37-3.956-13.517-12.143-13.517-9.63 0-17.364 9.96-17.364 23.305 0 8.5 2.872 14.247 2.872 14.247l-11.58 49.063c-3.44 14.562-.517 32.413-.27 34.216.145 1.068 1.518 1.322 2.14.515.888-1.16 12.356-15.317 16.255-29.464 1.103-4.006 6.333-24.75 6.333-24.75 3.128 5.967 12.27 11.223 21.994 11.223 28.944 0 48.58-26.387 48.58-61.707C121.35 24.873 98.728 0 64.347 0z"/></svg>