<svg xmlns="http://www.w3.org/2000/svg" width="26" height="26" fill="#04ac95"><path d="M25.855 5.574c-.94.418-1.953.7-3.016.828a5.28 5.28 0 0 0 2.309-2.906c-1.016.602-2.14 1.04-3.336 1.273a5.24 5.24 0 0 0-3.832-1.656c-2.898 0-5.25 2.352-5.25 5.25a5.24 5.24 0 0 0 .137 1.195c-4.363-.22-8.23-2.312-10.82-5.488a5.23 5.23 0 0 0-.711 2.645 5.24 5.24 0 0 0 2.336 4.367c-.863-.027-1.672-.262-2.38-.656v.066c0 2.543 1.81 4.664 4.21 5.148-.44.12-.902.184-1.383.184a5.14 5.14 0 0 1-.988-.094c.668 2.082 2.605 3.605 4.902 3.645-1.793 1.4-4.06 2.246-6.52 2.246-.426 0-.84-.023-1.25-.07 2.32 1.488 5.082 2.355 8.047 2.355 9.656 0 14.938-8 14.938-14.934 0-.23-.004-.457-.016-.684a10.5 10.5 0 0 0 2.621-2.715"/></svg>